<svg width="16" height="12" viewBox="0 0 16 12" fill="none" xmlns="http://www.w3.org/2000/svg">
<path fill-rule="evenodd" clip-rule="evenodd" d="M7.66708 2.61504C9.89181 2.61514 12.0315 3.46925 13.6438 5.00084C13.7652 5.11908 13.9593 5.11759 14.0789 4.9975L15.2395 3.82717C15.3001 3.76625 15.3338 3.68375 15.3333 3.5979C15.3328 3.51205 15.2981 3.42994 15.2368 3.36974C11.0049 -0.68249 4.32857 -0.68249 0.0966566 3.36974C0.0353544 3.42989 0.000572274 3.51198 6.99859e-06 3.59783C-0.000558277 3.68368 0.0331399 3.76621 0.0936447 3.82717L1.25459 4.9975C1.3741 5.11777 1.56831 5.11927 1.68965 5.00084C3.30221 3.46915 5.44212 2.61504 7.66708 2.61504ZM7.66707 6.42262C8.88942 6.42255 10.0681 6.8765 10.9742 7.69627C11.0968 7.81262 11.2898 7.8101 11.4093 7.69059L12.5685 6.52026C12.6296 6.45887 12.6635 6.3756 12.6626 6.28906C12.6617 6.20253 12.6261 6.11995 12.5639 6.05982C9.8047 3.49541 5.53179 3.49541 2.77264 6.05982C2.71031 6.11995 2.67475 6.20257 2.67393 6.28913C2.67312 6.37569 2.70711 6.45896 2.76829 6.52026L3.92722 7.69059C4.04668 7.8101 4.23973 7.81262 4.36228 7.69627C5.26775 6.87704 6.44554 6.42313 7.66707 6.42262ZM9.98928 8.98445C9.99106 9.07123 9.95691 9.15489 9.89491 9.21569L7.88962 11.2377C7.83083 11.2971 7.75069 11.3305 7.66706 11.3305C7.58344 11.3305 7.5033 11.2971 7.44451 11.2377L5.43888 9.21569C5.37692 9.15484 5.34284 9.07115 5.34468 8.98438C5.34651 8.8976 5.38411 8.81542 5.44858 8.75725C6.72924 7.67498 8.60488 7.67498 9.88554 8.75725C9.94998 8.81547 9.98751 8.89767 9.98928 8.98445Z" fill="black"/>
</svg>
